<?xml version="1.0" encoding="UTF-8" standalone="no"?>
<!-- Created with Inkscape (http://www.inkscape.org/) -->

<svg
   xmlns:dc="http://purl.org/dc/elements/1.1/"
   xmlns:cc="http://creativecommons.org/ns#"
   xmlns:rdf="http://www.w3.org/1999/02/22-rdf-syntax-ns#"
   xmlns:svg="http://www.w3.org/2000/svg"
   xmlns="http://www.w3.org/2000/svg"
   xmlns:sodipodi="http://sodipodi.sourceforge.net/DTD/sodipodi-0.dtd"
   xmlns:inkscape="http://www.inkscape.org/namespaces/inkscape"
   id="svg7384"
   sodipodi:docname="capslock-enabled.svg"
   version="1.1"
   inkscape:version="0.48.1 r9760"
   height="16"
   width="15.999999">
  <metadata
     id="metadata90">
    <rdf:RDF>
      <cc:Work
         rdf:about="">
        <dc:format>image/svg+xml</dc:format>
        <dc:type
           rdf:resource="http://purl.org/dc/dcmitype/StillImage" />
        <dc:title>Gnome Symbolic Icon Theme</dc:title>
      </cc:Work>
    </rdf:RDF>
  </metadata>
  <sodipodi:namedview
     inkscape:cy="2.736732"
     pagecolor="#555753"
     borderopacity="1"
     showborder="false"
     inkscape:bbox-paths="false"
     guidetolerance="10"
     inkscape:window-width="1310"
     showguides="true"
     inkscape:snap-bbox="true"
     inkscape:pageshadow="2"
     inkscape:guide-bbox="true"
     inkscape:snap-nodes="false"
     bordercolor="#666666"
     objecttolerance="10"
     id="namedview88"
     showgrid="false"
     inkscape:window-maximized="0"
     inkscape:window-x="368"
     inkscape:snap-global="true"
     inkscape:window-y="146"
     gridtolerance="10"
     inkscape:window-height="859"
     inkscape:snap-to-guides="true"
     inkscape:current-layer="layer11"
     inkscape:zoom="22.627417"
     inkscape:cx="16.800504"
     inkscape:snap-grids="true"
     inkscape:pageopacity="1">
    <inkscape:grid
       spacingx="1px"
       spacingy="1px"
       id="grid4866"
       empspacing="2"
       enabled="true"
       type="xygrid"
       snapvisiblegridlinesonly="true"
       visible="true" />
  </sodipodi:namedview>
  <title
     id="title9167">Gnome Symbolic Icon Theme</title>
  <defs
     id="defs7386" />
  <g
     inkscape:label="status"
     transform="translate(-222,-381)"
     inkscape:groupmode="layer"
     id="layer9"
     style="display:inline" />
  <g
     inkscape:label="devices"
     transform="translate(-222,-381)"
     inkscape:groupmode="layer"
     id="layer10" />
  <g
     inkscape:label="apps"
     transform="translate(-222,-381)"
     inkscape:groupmode="layer"
     id="layer11">
    <g
       transform="matrix(1.0011372,0,0,1,99.861257,-18.000003)"
       id="g4934">
      <path
         transform="matrix(0.99886409,0,0,1,-99.747824,17)"
         inkscape:connector-curvature="0"
         d="m 225.70228,383 c -1.53288,0 -2.71875,1.31948 -2.71875,2.84375 l 0,8.34375 c 0,1.52427 1.18587,2.84375 2.71875,2.84375 l 8.57897,0 c 1.53288,0 2.75,-1.31948 2.75,-2.84375 l 0,-8.34375 c 0,-1.52427 -1.21712,-2.84375 -2.75,-2.84375 z m 0.78125,1.03125 c 3.52668,0.25598 5.31717,0.13378 7.04772,0 0.75419,-0.0583 1.53125,0.61584 1.53125,1.4375 l 0,7.375 c 0,0.66541 -0.53119,1.09567 -1.1875,1.1875 -2.83642,0.39685 -4.75306,0.44007 -7.67272,0 -0.65529,-0.0988 -1.1875,-0.52209 -1.1875,-1.1875 l 0,-7.34375 c 0,-0.82166 0.71429,-1.52351 1.46875,-1.46875 z"
         id="rect11749-5-9-2-7"
         sodipodi:nodetypes="ssssssssssssssssss"
         style="font-size:medium;font-style:normal;font-variant:normal;font-weight:normal;font-stretch:normal;text-indent:0;text-align:start;text-decoration:none;line-height:normal;letter-spacing:normal;word-spacing:normal;text-transform:none;direction:ltr;block-progression:tb;writing-mode:lr-tb;text-anchor:start;color:#bebebe;fill:#bebebe;fill-opacity:1;fill-rule:nonzero;stroke:none;stroke-width:2;marker:none;visibility:visible;display:inline;overflow:visible;enable-background:accumulate;font-family:Bitstream Vera Sans;-inkscape-font-specification:Bitstream Vera Sans" />
    </g>
    <g
       style="font-size:12px;font-style:normal;font-variant:normal;font-weight:normal;font-stretch:normal;line-height:125%;letter-spacing:0px;word-spacing:0px;fill:#bebebe;fill-opacity:1;stroke:none;font-family:Cantarell;-inkscape-font-specification:Cantarell"
       id="text2996">
      <path
         d="m 229.3595,384.18294 -2.73,7.287 1.26,0 0.735,-1.911 2.667,0 0.7455,1.911 1.3335,0 -2.7405,-7.287 -1.2705,0 m 1.533,4.2 -1.869,0 0.9345,-2.709 0.9345,2.709"
         style="font-size:10.5px;font-weight:bold;fill:#bebebe;-inkscape-font-specification:Cantarell Bold"
         id="path5158" />
    </g>
  </g>
  <g
     inkscape:label="actions"
     transform="translate(-222,-381)"
     inkscape:groupmode="layer"
     id="layer12" />
  <g
     inkscape:label="places"
     transform="translate(-222,-381)"
     inkscape:groupmode="layer"
     id="layer13" />
  <g
     inkscape:label="mimetypes"
     transform="translate(-222,-381)"
     inkscape:groupmode="layer"
     id="layer14" />
  <g
     inkscape:label="emblems"
     transform="translate(-222,-381)"
     inkscape:groupmode="layer"
     id="layer15" />
</svg>
